<?xml version="1.0" ?><!DOCTYPE svg  PUBLIC '-//W3C//DTD SVG 1.1//EN'  'http://www.w3.org/Graphics/SVG/1.1/DTD/svg11.dtd'><svg enable-background="new 0 0 512 512" height="512px" id="Layer_1" version="1.1" viewBox="0 0 512 512" width="512px" xml:space="preserve" xmlns="http://www.w3.org/2000/svg" xmlns:xlink="http://www.w3.org/1999/xlink"><path d="M327.014,135.419c-17.267-16.005-36.183-27.844-54.63-38.857c-23.167-13.569-41.691-26.396-53.414-41.045  c-2.792-3.484-5.231-7.057-7.435-10.839l17.345-2.496c4.564-0.646,11.174,1.199,14.669,4.112c0,0,4.759,3.975,12.433,3.975  c10.106,0,17.028-8.66,17.028-8.66c2.833-3.613,8.889-7.074,13.451-7.723l20.177-2.914c0,0.046-0.037,0.081-0.037,0.103  c-4.841,13.999-12.431,24.658-23.601,35.125c-1.221,1.097-2.436,2.156-3.696,3.261c2.006,1.259,4.131,2.515,6.372,3.834l0.039,0.017  c15.419,9.166,33.041,19.983,49.949,34.139c2.675-2.806,5.272-5.761,7.792-8.846c10.261-12.704,19.111-27.808,25.013-45.109  c5.545-16.091,8.614-34.025,9.007-53.496H311.83c-0.078,2.244-0.192,4.385-0.354,6.513l-28.438,4.07  c-4.52,0.627-11.128-1.181-14.668-4.172c0,0-4.719-3.851-12.388-3.892c-10.072,0.041-16.995,8.656-16.995,8.656  c-2.828,3.576-8.889,7.053-13.449,7.703l-22.693,3.27c-1.457-6.448-2.436-13.73-2.713-22.146h-65.601  c0.389,19.508,3.417,37.367,9.004,53.496c8.849,26.035,24.267,46.799,41.413,62.633c17.268,16.025,36.184,27.884,54.672,38.876  c23.166,13.571,41.69,26.428,53.371,41.022c1.416,1.715,2.673,3.462,3.894,5.214l-13.848,2.005  c-4.521,0.633-11.128-1.22-14.668-4.175c0,0-4.721-3.872-12.389-3.909c-10.072,0.037-16.993,8.631-16.993,8.631  c-2.828,3.599-8.889,7.102-13.45,7.729l-17.62,2.56c4.879-10.936,11.681-19.905,21.082-28.715c1.144-1.06,2.322-2.162,3.583-3.227  c-2.048-1.221-4.131-2.479-6.375-3.771l-0.235-0.163h-0.039c-15.339-9.144-32.84-19.934-49.716-33.978  c-2.634,2.776-5.195,5.665-7.671,8.734c-10.304,12.665-19.113,27.763-25.049,45.089c-5.942,17.288-9.011,36.599-9.011,57.762v0.132  v0.281c0,21.137,3.069,40.448,9.048,57.737c8.849,26.016,24.267,46.744,41.413,62.596c17.268,16.044,36.184,27.884,54.672,38.856  c23.126,13.607,41.69,26.434,53.371,41.106c2.164,2.607,4.055,5.349,5.821,8.163l-15.773,2.297  c-4.521,0.648-11.128-1.202-14.668-4.155c0,0-4.721-3.911-12.389-3.911c-10.072,0-16.993,8.635-16.993,8.635  c-2.828,3.597-8.889,7.06-13.45,7.727l-19.038,2.718c4.879-12.567,12.158-22.438,22.5-32.173c1.144-1.083,2.322-2.145,3.583-3.223  c-2.048-1.225-4.131-2.462-6.335-3.762l-0.116-0.094c-15.421-9.131-32.999-19.946-49.914-34.104  c-2.634,2.814-5.195,5.703-7.671,8.753c-10.304,12.703-19.113,27.806-25.049,45.108c-5.549,16.108-8.578,34.008-8.966,53.496h65.602  c0.115-3.284,0.315-6.416,0.628-9.361l28.121-4.073c4.564-0.646,11.173,1.219,14.669,4.132c0,0,4.759,3.954,12.431,3.954  c10.108,0,17.03-8.638,17.03-8.638c2.833-3.595,8.889-7.078,13.451-7.705l21.987-3.19c1.846,7.066,3.106,15.223,3.381,24.882h65.646  c-0.393-19.485-3.462-37.386-9.007-53.496c-8.852-26.014-24.307-46.758-41.456-62.598c-17.267-16.061-36.183-27.916-54.673-38.896  c-23.125-13.584-41.647-26.408-53.371-41.038c-2.99-3.756-5.622-7.571-7.906-11.687l17.816-2.554  c4.564-0.684,11.173,1.168,14.669,4.113c0,0,4.759,3.968,12.431,3.968c10.108,0,17.03-8.67,17.03-8.67  c2.833-3.592,8.889-7.057,13.451-7.731l20.49-2.929c-0.115,0.338-0.231,0.69-0.351,1.062C301.76,305.53,294.17,316.146,283,326.635  c-1.222,1.099-2.436,2.193-3.696,3.298c2.005,1.222,4.131,2.462,6.372,3.796l0.115,0.062l-0.155-0.102  c15.456,9.185,33.077,20.059,50.029,34.215c2.675-2.826,5.272-5.779,7.792-8.828c10.261-12.723,19.071-27.827,25.013-45.147  c5.937-17.249,9.046-36.598,9.046-57.743v-0.273v-0.095c0-21.163-3.11-40.494-9.046-57.762  c-8.851-26.012-24.307-46.742-41.42-62.596 M311.909,260.416h-0.079c-0.078,1.924-0.156,3.771-0.274,5.582l-28.518,4.129  c-4.52,0.635-11.128-1.195-14.668-4.167c0,0-4.721-3.873-12.389-3.911c-10.071,0.038-16.994,8.633-16.994,8.633  c-2.828,3.62-8.889,7.078-13.449,7.707l-22.888,3.324c-1.616-7.357-2.557-15.753-2.598-25.705v-4.44h0.08  c0.156-4.565,0.51-8.774,1.024-12.747l27.725-3.972c4.564-0.666,11.174,1.183,14.669,4.095c0,0,4.759,3.967,12.432,3.967  c10.107,0,17.029-8.65,17.029-8.65c2.833-3.595,8.889-7.059,13.451-7.712l21.12-3.042c2.634,8.812,4.287,19.346,4.328,32.501  L311.909,260.416L311.909,260.416z"/></svg>