<svg xmlns="http://www.w3.org/2000/svg" viewBox="0 0 68 72.5" x="0px" y="0px"><g fill="#000000" fill-rule="evenodd"><path d="M36,6.22805392 C43.6898042,7.97747155 50,19.4566273 50,29 L50,33 L66,33 C67.1045695,33 68,33.8954305 68,35 L68,56 C68,57.1045695 67.1045695,58 66,58 L2,58 C0.8954305,58 0,57.1045695 0,56 L0,35 C0,33.8954305 0.8954305,33 2,33 L18,33 L18,29 C18,18.841048 24.1839448,7.8508493 32,6.20964909 L32,2 C32,0.8954305 32.8954305,0 34,0 C35.1045695,0 36,0.8954305 36,2 L36,6.22805392 L36,6.22805392 Z M46,31 L46,47 L22,47 L22,31 L46,31 Z M46,51 L46,54 L22,54 L22,51 L46,51 Z M64,37 L64,54 L50,54 L50,37 L64,37 Z M18,37 L18,54 L4,54 L4,37 L18,37 Z M34,10 C39.3387478,10 45.0372513,18.982231 45.8906018,27 L22.0937546,27 C22.8772508,18.5169413 28.4447055,10 34,10 Z"/><path d="M20 22L48 22C49.1045695 22 50 21.1045695 50 20 50 18.8954305 49.1045695 18 48 18L20 18C18.8954305 18 18 18.8954305 18 20 18 21.1045695 18.8954305 22 20 22zM43 47L43 36C43 34.8954305 42.1045695 34 41 34 39.8954305 34 39 34.8954305 39 36L39 47C39 48.1045695 39.8954305 49 41 49 42.1045695 49 43 48.1045695 43 47zM29 47L29 36C29 34.8954305 28.1045695 34 27 34 25.8954305 34 25 34.8954305 25 36L25 47C25 48.1045695 25.8954305 49 27 49 28.1045695 49 29 48.1045695 29 47zM36 47L36 36C36 34.8954305 35.1045695 34 34 34 32.8954305 34 32 34.8954305 32 36L32 47C32 48.1045695 32.8954305 49 34 49 35.1045695 49 36 48.1045695 36 47zM62 45L62 41C62 39.8954305 61.1045695 39 60 39 58.8954305 39 58 39.8954305 58 41L58 45C58 46.1045695 58.8954305 47 60 47 61.1045695 47 62 46.1045695 62 45zM56 45L56 41C56 39.8954305 55.1045695 39 54 39 52.8954305 39 52 39.8954305 52 41L52 45C52 46.1045695 52.8954305 47 54 47 55.1045695 47 56 46.1045695 56 45zM16 45L16 41C16 39.8954305 15.1045695 39 14 39 12.8954305 39 12 39.8954305 12 41L12 45C12 46.1045695 12.8954305 47 14 47 15.1045695 47 16 46.1045695 16 45zM10 45L10 41C10 39.8954305 9.1045695 39 8 39 6.8954305 39 6 39.8954305 6 41L6 45C6 46.1045695 6.8954305 47 8 47 9.1045695 47 10 46.1045695 10 45z"/></g><text x="0" y="73" fill="#000000" font-size="5px" font-weight="bold" font-family="'Helvetica Neue', Helvetica, Arial-Unicode, Arial, Sans-serif">Created by Andrejs Kirma</text><text x="0" y="78" fill="#000000" font-size="5px" font-weight="bold" font-family="'Helvetica Neue', Helvetica, Arial-Unicode, Arial, Sans-serif">from the Noun Project</text></svg>